<svg xmlns="http://www.w3.org/2000/svg" xmlns:xlink="http://www.w3.org/1999/xlink" viewBox="-6401 -4677 48 48">
  <defs>
    <style>
      .cls-1 {
        clip-path: url(#clip-iconlogo);
      }

      .cls-2 {
        fill: #fff;
      }

      .cls-3 {
        fill: #0023f1;
      }
    </style>
    <clipPath id="clip-iconlogo">
      <rect x="-6401" y="-4677" width="48" height="48"/>
    </clipPath>
  </defs>
  <g id="iconlogo" class="cls-1">
    <rect class="cls-3" x="-6401" y="-4677" width="48" height="48"/>
    <path id="Pfad_7408" data-name="Pfad 7408" class="cls-2" d="M23.97,13.066a12.893,12.893,0,0,0-8.416-3.831h-.406a2.81,2.81,0,0,0-2.089.929,3.037,3.037,0,0,0-.7,1.973A2.519,2.519,0,0,0,13.291,14a2.751,2.751,0,0,0,1.567.7h.174A7.738,7.738,0,0,1,20.139,16.9a7.469,7.469,0,0,1,2.205,5.92,2.107,2.107,0,0,0-1.509.638,2.277,2.277,0,0,0,0,3.192c.058.058.058.058.116.058a10.089,10.089,0,0,1-.754.871,7.6,7.6,0,0,1-10.737,0,7.687,7.687,0,0,1-2.205-5.8V21.6a1.37,1.37,0,0,1,.406-.929,1.4,1.4,0,0,1,2.031,0,1.323,1.323,0,0,1,.406,1.1v.29a4.725,4.725,0,1,0,8.067-3.192l-.406-.406a2.249,2.249,0,0,0-2.263-2.67,2.494,2.494,0,0,0-1.625.638A2.235,2.235,0,0,0,15.5,20.263a2.494,2.494,0,0,0,1.625-.638h0c.058.058.116.058.116.116a3.447,3.447,0,0,1-4.875,4.875,3.242,3.242,0,0,1-.987-2.554v-.348a2.764,2.764,0,0,0-.813-1.973,2.723,2.723,0,0,0-3.424-.348V8.83a.638.638,0,1,0-1.277,0V22.12a.213.213,0,0,0,.058.174A8.647,8.647,0,0,0,8.532,28.5a8.828,8.828,0,0,0,12.536,0,9.751,9.751,0,0,0,1.045-1.219h.348a2.494,2.494,0,0,0,1.625-.638,2.277,2.277,0,0,0,0-3.192c-.116-.116-.29-.232-.406-.348a8.789,8.789,0,0,0-2.554-7.139,9.1,9.1,0,0,0-5.92-2.612H15.09a1.458,1.458,0,0,1-.813-.348,1.329,1.329,0,0,1-.464-.987,1.62,1.62,0,0,1,.348-1.045,1.372,1.372,0,0,1,1.1-.464h.348a11.745,11.745,0,0,1,7.6,20.023,10.377,10.377,0,0,1-.813.754,2.247,2.247,0,0,0-3.076.116,2.293,2.293,0,0,0-.638,1.973,11.754,11.754,0,0,1-15.38-9.17,4.841,4.841,0,0,0,.7-.464,2.28,2.28,0,0,0,.638-1.625A2.494,2.494,0,0,0,4,20.5a2.569,2.569,0,0,0-1.161-.638V4.607a1,1,0,0,0-.813-.638.644.644,0,0,0-.638.638V20.089a2.209,2.209,0,0,0-.754.522A2.012,2.012,0,0,0,0,22.12a2.494,2.494,0,0,0,.638,1.625,2.239,2.239,0,0,0,1.277.638,12.674,12.674,0,0,0,3.656,7.081,13.07,13.07,0,0,0,13.581,3.076l.058.058a2.229,2.229,0,0,0,1.625.638,2.494,2.494,0,0,0,1.625-.638,2.28,2.28,0,0,0,.638-1.625c0-.232-.058-.406-.058-.638.348-.29.7-.58,1.045-.929A13,13,0,0,0,23.97,13.066ZM15.5,19.335a1.19,1.19,0,1,1,.871-.348A1.394,1.394,0,0,1,15.5,19.335Zm7.777,6.616A1.211,1.211,0,1,1,22.4,23.92a1.28,1.28,0,0,1,.871.348A1.191,1.191,0,0,1,23.273,25.951ZM1.393,21.308a1.181,1.181,0,0,1,.871-.348,1.181,1.181,0,0,1,.871.348,1.458,1.458,0,0,1,.348.813,1.19,1.19,0,0,1-1.219,1.219,1.19,1.19,0,0,1-.871-2.031ZM21.648,33.844a1.127,1.127,0,1,1,.406-.813A1.109,1.109,0,0,1,21.648,33.844Z" transform="translate(-6391.519 -4674.46)"/>
  </g>
</svg>
